<svg width="44" height="44" viewBox="0 0 44 44" fill="none" xmlns="http://www.w3.org/2000/svg">
  <rect width="44" height="44" rx="14" fill="url(#paint0_linear)"/>
  <g filter="url(#shadow)">
    <path d="M22 13c-3.5 0-6 2.5-6 6 0 1.2.3 2.2.8 3.1C15.3 22.7 14 24.7 14 27c0 2.8 2.2 5 5 5h6c2.8 0 5-2.2 5-5 0-2.3-1.3-4.3-2.8-4.9.5-.9.8-1.9.8-3.1 0-3.5-2.5-6-6-6z" fill="#fff"/>
    <path d="M19 19c0-1.7 1.3-3 3-3s3 1.3 3 3" stroke="#6366F1" stroke-width="1.5" stroke-linecap="round"/>
    <circle cx="19.5" cy="23.5" r="1.5" fill="#6366F1"/>
    <circle cx="24.5" cy="23.5" r="1.5" fill="#6366F1"/>
  </g>
  <defs>
    <linearGradient id="paint0_linear" x1="0" y1="0" x2="44" y2="44" gradientUnits="userSpaceOnUse">
      <stop stop-color="#6366F1"/>
      <stop offset="1" stop-color="#0EA5E9"/>
    </linearGradient>
    <filter id="shadow" x="10" y="10" width="24" height="24" filterUnits="userSpaceOnUse" color-interpolation-filters="sRGB">
      <feDropShadow dx="0" dy="2" stdDeviation="2" flood-color="#6366F1" flood-opacity="0.15"/>
    </filter>
  </defs>
</svg>
